<?xml version="1.0" standalone="no"?><!DOCTYPE svg PUBLIC "-//W3C//DTD SVG 1.1//EN" "http://www.w3.org/Graphics/SVG/1.1/DTD/svg11.dtd"><svg t="1671878318488" class="icon" viewBox="0 0 1024 1024" version="1.1" xmlns="http://www.w3.org/2000/svg" p-id="10812" xmlns:xlink="http://www.w3.org/1999/xlink" width="200" height="200"><path d="M506.28 85.49c234.42 0 424.47 190 424.47 424.47s-190 424.47-424.47 424.47S81.82 744.39 81.82 510 271.85 85.49 506.28 85.49zM853 510v-4.49q0-3.43-0.16-6.86c0-0.69 0-1.37-0.07-2.06 0-1.46-0.11-2.93-0.19-4.4v-0.2c-0.07-1.42-0.15-2.84-0.25-4.27-0.18-2.94-0.4-5.89-0.67-8.81-0.12-1.46-0.26-2.92-0.42-4.38a343.34 343.34 0 0 0-82.75-191.45q-1.36-1.58-2.74-3.13c-0.91-1-1.84-2.07-2.78-3.09q-2.67-2.94-5.42-5.83-3-3.13-6.06-6.21c-2-2-4.12-4.07-6.21-6.06q-4.4-4.19-8.93-8.21-1.55-1.39-3.13-2.74a343.45 343.45 0 0 0-195.82-83.17q-4.39-0.4-8.8-0.67c-1.42-0.1-2.84-0.18-4.27-0.25h-0.2c-1.46-0.08-2.93-0.14-4.4-0.19-0.69 0-1.37-0.06-2.06-0.07q-3.43-0.12-6.86-0.16h-8.98q-3.43 0-6.86 0.16c-0.69 0-1.37 0-2.06 0.07-1.46 0-2.93 0.11-4.4 0.19h-0.2c-1.42 0.07-2.84 0.15-4.27 0.25q-4.42 0.27-8.81 0.67c-1.46 0.12-2.92 0.26-4.38 0.42a343.31 343.31 0 0 0-191.45 82.75l-3.13 2.74q-4.53 4-8.93 8.21c-2.09 2-4.17 4-6.21 6.06q-4.42 4.42-8.66 9c-0.94 1-1.89 2-2.81 3.06s-1.87 2.06-2.78 3.09a343.44 343.44 0 0 0-85.5 194.58c-0.16 1.45-0.3 2.91-0.42 4.38-0.27 2.92-0.49 5.87-0.67 8.81-0.1 1.42-0.18 2.84-0.25 4.27v0.2c-0.08 1.46-0.14 2.93-0.19 4.4 0 0.69-0.06 1.37-0.07 2.06q-0.12 3.43-0.16 6.86v8.98q0 3.43 0.16 6.86c0 0.69 0 1.37 0.07 2.06 0 1.46 0.11 2.93 0.19 4.4v0.2c0.07 1.42 0.15 2.84 0.25 4.27 0.18 2.94 0.4 5.89 0.67 8.81 0.12 1.46 0.26 2.92 0.42 4.38A343.44 343.44 0 0 0 246.85 740c0.91 1 1.84 2.07 2.78 3.09s1.87 2 2.81 3.06q4.25 4.56 8.66 9c2 2 4.12 4.07 6.21 6.06q4.4 4.19 8.93 8.21l3.13 2.74a343.31 343.31 0 0 0 191.45 82.75c1.45 0.16 2.91 0.3 4.38 0.42q4.4 0.4 8.81 0.67c1.42 0.1 2.84 0.18 4.27 0.25h0.2c1.46 0.08 2.93 0.14 4.4 0.19 0.69 0 1.37 0.06 2.06 0.07q3.43 0.12 6.86 0.16h8.98q3.43 0 6.86-0.16c0.69 0 1.37 0 2.06-0.07 1.46 0 2.93-0.11 4.4-0.19h0.2c1.42-0.07 2.84-0.15 4.27-0.25q4.42-0.27 8.8-0.67a343.45 343.45 0 0 0 195.82-83.17q1.58-1.36 3.13-2.74 4.53-4 8.93-8.21c2.09-2 4.17-4 6.21-6.06s4.08-4.12 6.06-6.21q2.74-2.89 5.42-5.83c0.94-1 1.87-2.06 2.78-3.09s1.84-2.08 2.74-3.13a343.34 343.34 0 0 0 82.74-191.48c0.16-1.45 0.3-2.91 0.42-4.38 0.27-2.92 0.49-5.87 0.67-8.81 0.1-1.42 0.18-2.84 0.25-4.27v-0.2c0.08-1.46 0.14-2.93 0.19-4.4 0-0.69 0.06-1.37 0.07-2.06q0.12-3.43 0.16-6.86c0.04-1.48 0.04-2.98 0.04-4.43z" fill="#FFFFFF" p-id="10813"></path><path d="M853 505.47v8.98q0 3.43-0.16 6.86c0 0.69 0 1.37-0.07 2.06 0 1.46-0.12 2.93-0.19 4.4v0.2c-0.08 1.42-0.16 2.84-0.25 4.27q-0.28 4.42-0.67 8.81c-0.13 1.46-0.27 2.91-0.42 4.38a345.26 345.26 0 0 1-82.75 191.45L765.7 740c-0.92 1-1.85 2.07-2.78 3.09q-2.67 2.94-5.42 5.83-3 3.13-6.06 6.21t-6.21 6.06q-4.4 4.19-8.93 8.21l-3.13 2.74a345.23 345.23 0 0 1-195.82 83.16q-4.39 0.39-8.8 0.67l-4.27 0.25h-0.2c-1.46 0.07-2.93 0.14-4.4 0.19l-2.06 0.07q-3.43 0.12-6.86 0.16h-8.98q-3.43 0-6.86-0.16l-2.06-0.07c-1.46 0-2.93-0.12-4.4-0.19h-0.2L484 856q-4.42-0.28-8.81-0.67c-1.46-0.13-2.91-0.27-4.38-0.42a345.26 345.26 0 0 1-191.45-82.75l-3.13-2.74q-4.53-4-8.93-8.21-3.13-3-6.21-6.06-4.42-4.42-8.66-9c-0.94-1-1.89-2-2.81-3.06s-1.86-2.06-2.78-3.09a345.37 345.37 0 0 1-85.5-194.58c-0.15-1.46-0.29-2.91-0.42-4.38q-0.39-4.4-0.67-8.81c-0.09-1.42-0.17-2.84-0.25-4.27v-0.2c-0.07-1.46-0.14-2.93-0.19-4.4 0-0.69 0-1.37-0.07-2.06q-0.12-3.43-0.16-6.86v-4.49-4.49q0-3.43 0.16-6.86c0-0.69 0-1.37 0.07-2.06 0-1.46 0.12-2.93 0.19-4.4v-0.2c0.08-1.42 0.16-2.84 0.25-4.27q0.28-4.42 0.67-8.81c0.13-1.46 0.27-2.91 0.42-4.38a345.37 345.37 0 0 1 85.5-194.58c0.92-1 1.85-2.07 2.78-3.09s1.87-2 2.81-3.06q4.25-4.56 8.66-9 3.07-3.07 6.21-6.06 4.4-4.19 8.93-8.21l3.13-2.74A345.26 345.26 0 0 1 470.83 165c1.46-0.15 2.91-0.29 4.38-0.42q4.4-0.39 8.81-0.67l4.27-0.25h0.2c1.46-0.07 2.93-0.14 4.4-0.19l2.06-0.07q3.43-0.12 6.86-0.16h8.98q3.43 0 6.86 0.16l2.06 0.07c1.46 0 2.93 0.12 4.4 0.19h0.2l4.27 0.25q4.42 0.28 8.8 0.67a345.23 345.23 0 0 1 195.82 83.17l3.13 2.74q4.53 4 8.93 8.21 3.13 3 6.21 6.06t6.03 6.24q2.74 2.89 5.42 5.83c0.93 1 1.86 2.06 2.78 3.09l2.74 3.13A345.26 345.26 0 0 1 851.2 474.5c0.15 1.46 0.29 2.91 0.42 4.38q0.39 4.4 0.67 8.81c0.09 1.42 0.17 2.84 0.25 4.27v0.2c0.07 1.46 0.14 2.93 0.19 4.4 0 0.69 0 1.37 0.07 2.06q0.12 3.38 0.2 6.85zM709.37 608.69a36.84 36.84 0 1 0-36.84 36.84 36.84 36.84 0 0 0 36.84-36.84zM523.19 366.45a62.36 62.36 0 1 0-62.36 62.36 62.37 62.37 0 0 0 62.36-62.36z" fill="#FFD72E" p-id="10814"></path><path d="M852.8 498.61c0-0.69 0-1.37-0.07-2.06 0.03 0.69 0.06 1.37 0.07 2.06zM852.73 523.36c0-0.69 0-1.37 0.07-2.06-0.01 0.7-0.04 1.38-0.07 2.06zM852.73 496.55c0-1.46-0.12-2.93-0.19-4.4 0.08 1.47 0.14 2.94 0.19 4.4zM852.54 527.76c0.07-1.46 0.14-2.93 0.19-4.4-0.05 1.46-0.11 2.94-0.19 4.4zM852.53 492c-0.08-1.42-0.16-2.84-0.25-4.27 0.1 1.38 0.18 2.8 0.25 4.27zM852.28 532.22c0.09-1.42 0.17-2.84 0.25-4.27-0.07 1.43-0.15 2.85-0.25 4.27zM852.28 487.69q-0.28-4.42-0.67-8.81c0.27 2.92 0.49 5.87 0.67 8.81zM851.62 541q0.39-4.4 0.67-8.81c-0.19 2.98-0.41 5.92-0.67 8.81zM851.62 478.88c-0.13-1.46-0.27-2.91-0.42-4.38 0.16 1.5 0.3 2.92 0.42 4.38zM851.2 545.41c0.15-1.46 0.29-2.91 0.42-4.38-0.12 1.47-0.26 2.97-0.42 4.38zM768.45 283.05A343.34 343.34 0 0 1 851.2 474.5a345.26 345.26 0 0 0-82.75-191.45zM851.2 545.41a343.34 343.34 0 0 1-82.75 191.45 345.26 345.26 0 0 0 82.75-191.45zM768.45 283.05l-2.74-3.13q1.38 1.55 2.74 3.13zM765.7 740l2.74-3.13q-1.35 1.57-2.74 3.13zM765.7 279.92c-0.92-1-1.85-2.07-2.78-3.09 0.94 1.02 1.87 2.06 2.78 3.09zM762.92 743.08c0.93-1 1.86-2.06 2.78-3.09-0.91 1.01-1.84 2.07-2.78 3.09zM736.31 250.52l-3.13-2.74q1.57 1.36 3.13 2.74zM733.17 772.13l3.13-2.74q-1.55 1.38-3.13 2.74zM672.54 571.85a36.84 36.84 0 1 1-36.84 36.84 36.84 36.84 0 0 1 36.84-36.84zM537.35 164.61a343.45 343.45 0 0 1 195.82 83.17 345.23 345.23 0 0 0-195.82-83.17zM733.17 772.13a343.45 343.45 0 0 1-195.82 83.17 345.23 345.23 0 0 0 195.82-83.17zM537.35 164.61q-4.39-0.39-8.8-0.67 4.45 0.27 8.8 0.67zM528.55 856q4.42-0.28 8.8-0.67-4.35 0.37-8.8 0.67zM528.55 163.95l-4.27-0.25c1.42 0.07 2.85 0.15 4.27 0.25zM524.28 856.22l4.27-0.25c-1.42 0.1-2.85 0.18-4.27 0.25zM524.08 163.69c-1.46-0.07-2.93-0.14-4.4-0.19 1.47 0.05 2.94 0.11 4.4 0.19zM519.69 856.41c1.46 0 2.93-0.12 4.4-0.19-1.47 0.08-2.94 0.14-4.4 0.19zM519.69 163.5l-2.06-0.07c0.68 0.01 1.37 0.04 2.06 0.07zM517.63 856.48l2.06-0.07c-0.69 0.03-1.38 0.06-2.06 0.07z" fill="#FFD72E" p-id="10815"></path><path d="M460.82 366.45m-62.36 0a62.36 62.36 0 1 0 124.72 0 62.36 62.36 0 1 0-124.72 0Z" fill="#FFD72E" p-id="10816"></path><path d="M494.93 163.43l-2.06 0.07c0.69-0.03 1.38-0.06 2.06-0.07zM492.88 856.41l2.06 0.07c-0.69-0.01-1.38-0.04-2.06-0.07zM492.88 163.5c-1.46 0-2.93 0.12-4.4 0.19 1.46-0.08 2.93-0.14 4.4-0.19zM488.48 856.23c1.46 0.07 2.93 0.14 4.4 0.19-1.47-0.06-2.94-0.12-4.4-0.19zM488.28 163.7l-4.27 0.25c1.43-0.1 2.85-0.18 4.27-0.25zM484 856l4.27 0.25c-1.41-0.1-2.83-0.18-4.27-0.25zM484 163.95q-4.42 0.28-8.81 0.67 4.41-0.41 8.81-0.67zM475.2 855.3q4.4 0.39 8.81 0.67-4.41-0.27-8.81-0.67zM475.2 164.61c-1.46 0.13-2.91 0.27-4.38 0.42 1.46-0.16 2.92-0.3 4.38-0.42zM470.83 854.88c1.46 0.15 2.91 0.29 4.38 0.42-1.47-0.12-2.93-0.3-4.38-0.42zM279.38 247.78A343.31 343.31 0 0 1 470.83 165a345.26 345.26 0 0 0-191.45 82.78zM470.83 854.88a343.31 343.31 0 0 1-191.45-82.75 345.26 345.26 0 0 0 191.45 82.75zM279.38 247.78l-3.13 2.74zM276.25 769.39l3.13 2.74zM252.45 273.77c-0.94 1-1.89 2-2.81 3.06 0.92-1.03 1.86-2.05 2.81-3.06zM249.63 743.08c0.92 1 1.87 2 2.81 3.06-0.94-1.01-1.88-2.03-2.81-3.06zM249.63 276.83c-0.93 1-1.86 2.06-2.78 3.09 0.92-1.03 1.84-2.07 2.78-3.09zM246.85 740c0.92 1 1.85 2.07 2.78 3.09-0.94-1.03-1.86-2.09-2.78-3.09zM161.35 474.5a343.44 343.44 0 0 1 85.5-194.58 345.37 345.37 0 0 0-85.5 194.58zM246.85 740a343.44 343.44 0 0 1-85.5-194.58A345.37 345.37 0 0 0 246.85 740zM161.35 474.5zM160.94 541c0.13 1.46 0.27 2.91 0.42 4.38-0.16-1.38-0.3-2.88-0.42-4.38zM160.94 478.88q-0.39 4.4-0.67 8.81c0.18-2.94 0.4-5.89 0.67-8.81zM160.27 532.22q0.28 4.42 0.67 8.81c-0.27-2.92-0.49-5.86-0.67-8.81zM160.27 487.69c-0.09 1.42-0.17 2.84-0.25 4.27 0.07-1.43 0.15-2.85 0.25-4.27zM160 528c0.08 1.42 0.16 2.84 0.25 4.27-0.08-1.47-0.16-2.89-0.25-4.27zM160 492.15c-0.07 1.46-0.14 2.93-0.19 4.4 0.06-1.46 0.12-2.93 0.19-4.4zM159.82 523.36c0 1.46 0.12 2.93 0.19 4.4-0.08-1.46-0.14-2.94-0.19-4.4zM159.82 496.55c0 0.69 0 1.37-0.07 2.06 0.01-0.69 0.04-1.37 0.07-2.06zM159.75 521.3c0 0.69 0 1.37 0.07 2.06-0.03-0.68-0.06-1.36-0.07-2.06z" fill="#FFD72E" p-id="10817"></path><path d="M441.9 672.52m-29.6 0a29.6 29.6 0 1 0 59.2 0 29.6 29.6 0 1 0-59.2 0Z" fill="#141414" p-id="10818"></path><path d="M441.9 702.61a30.1 30.1 0 1 1 30.1-30.1 30.13 30.13 0 0 1-30.1 30.1z m0-59.2a29.1 29.1 0 1 0 29.1 29.1 29.13 29.13 0 0 0-29.1-29.09z" fill="#26251E" p-id="10819"></path><path d="M506.28 955.56A445.72 445.72 0 0 1 332.82 99.37a445.72 445.72 0 0 1 346.92 821.17 442.83 442.83 0 0 1-173.46 35.02z m0-848.93a402 402 0 1 0 157 31.69 400.79 400.79 0 0 0-157-31.69z" fill="#26251E" p-id="10820"></path><path d="M506.28 877.82h-4.77c-2.55 0-4.94-0.09-7.3-0.17h-0.07l-2.08-0.07c-1.47-0.05-3-0.12-4.42-0.19h-0.54l-4.41-0.26c-3.31-0.21-6.35-0.44-9.34-0.71-1.56-0.14-3.1-0.29-4.66-0.44a365.15 365.15 0 0 1-203.15-87.8l-3.3-2.89c-3.23-2.87-6.42-5.8-9.51-8.74-2.45-2.33-4.61-4.45-6.61-6.45-3.11-3.11-6.2-6.31-9.14-9.47-1-1.08-2-2.17-3-3.27s-1.84-2-2.75-3.05l-0.13-0.15a365 365 0 0 1-90.77-206.54c-0.16-1.55-0.31-3.1-0.44-4.65-0.26-3-0.49-6-0.7-9.31-0.09-1.49-0.18-3-0.26-4.42v-0.1-0.46c-0.07-1.48-0.14-3-0.19-4.44 0-0.74-0.05-1.47-0.07-2.21-0.08-2.32-0.13-4.69-0.17-7.24v-4.75-4.78c0-2.54 0.09-4.91 0.17-7.23 0-0.73 0-1.46 0.07-2.19 0.05-1.48 0.12-3 0.19-4.44v-0.54c0.08-1.47 0.17-2.94 0.26-4.41 0.21-3.31 0.44-6.35 0.71-9.34 0.14-1.56 0.29-3.11 0.44-4.66A364.92 364.92 0 0 1 231 265.89l0.19-0.21q1.38-1.54 2.76-3.07c1-1.09 2-2.18 3-3.26 2.93-3.15 6-6.35 9.18-9.51 2-2 4.14-4.1 6.57-6.41 3.09-2.95 6.28-5.88 9.47-8.71l3.32-2.91A365.14 365.14 0 0 1 468.69 144q2.31-0.24 4.64-0.44c3-0.27 6.05-0.5 9.33-0.71l4.42-0.26h0.56c1.47-0.07 3-0.14 4.42-0.19l2.22-0.08c2.27-0.08 4.64-0.13 7.24-0.17h9.52c2.6 0 5 0.09 7.24 0.17l2.21 0.08c1.47 0.05 3 0.12 4.43 0.19h0.54l4.41 0.26c3.32 0.21 6.37 0.44 9.34 0.71A364.82 364.82 0 0 1 747 231.8l3.3 2.89a376.658 376.658 0 0 1 16.06 15.14c2.18 2.17 4.35 4.4 6.47 6.63s4 4.26 5.73 6.16c0.95 1 1.92 2.13 2.9 3.22l0.07 0.08q1.44 1.63 2.88 3.29a365.14 365.14 0 0 1 87.81 203.17q0.24 2.31 0.44 4.65c0.26 3 0.5 6 0.71 9.32 0.09 1.48 0.18 2.95 0.26 4.42v0.55c0.07 1.47 0.14 3 0.19 4.43 0 0.69 0.05 1.38 0.07 2.08v0.1c0.08 2.28 0.13 4.66 0.17 7.27v9.52c0 2.61-0.09 5-0.17 7.27v0.12c0 0.69 0 1.38-0.07 2.08-0.05 1.47-0.12 3-0.19 4.42v0.56c-0.08 1.47-0.16 2.94-0.26 4.4a353.18 353.18 0 0 1-1.16 14 365.13 365.13 0 0 1-87.8 203.14c-1 1.12-1.93 2.21-2.89 3.3l-0.07 0.08q-1.46 1.63-2.93 3.25c-1.73 1.9-3.6 3.92-5.7 6.13s-4.28 4.45-6.46 6.62c-2 2-4.12 4.07-6.56 6.4-3.09 2.95-6.28 5.88-9.47 8.71l-3.33 2.9a364.83 364.83 0 0 1-207.81 88.26c-3 0.26-6 0.49-9.31 0.71l-4.44 0.26h-0.54c-1.47 0.07-3 0.14-4.43 0.19l-2.08 0.07h-0.17c-2.26 0.08-4.65 0.13-7.22 0.17-1.53 0.04-3.13 0.06-4.72 0.06z m-16.73-42.71c1.35 0.06 2.7 0.13 4 0.17h0.21l1.59 0.05h0.17c2.15 0.07 4.24 0.12 6.5 0.15h8.41c2.28 0 4.38-0.08 6.42-0.15h0.27l1.59-0.05h0.29c1.35 0 2.7-0.11 4-0.17h0.27l3.93-0.23c2.92-0.19 5.63-0.39 8.26-0.63a322.77 322.77 0 0 0 183.84-78.09l3-2.6c2.79-2.48 5.61-5.07 8.35-7.69 2.19-2.08 4.08-3.94 5.8-5.66l0.08-0.08c1.89-1.88 3.78-3.82 5.62-5.76s3.57-3.8 5.12-5.5c0.9-1 1.77-2 2.64-2.93l2.57-2.94a323 323 0 0 0 77.68-179.72 324.881 324.881 0 0 0 1.02-12.4c0.08-1.3 0.16-2.6 0.23-3.91v-0.34c0.06-1.32 0.13-2.66 0.17-4v-0.21c0-0.53 0-1.05 0.05-1.58v-0.28c0.07-2 0.12-4.08 0.15-6.41v-4.21-4.21c0-2.32-0.08-4.41-0.15-6.4v-0.28c0-0.53 0-1.06-0.05-1.59v-0.21c0-1.32-0.11-2.65-0.17-4v-0.34q-0.11-2-0.23-3.92a327.494 327.494 0 0 0-1.02-12.38 323.07 323.07 0 0 0-77.7-179.76l-2.55-2.85c-0.87-1-1.73-1.94-2.61-2.89-1.55-1.71-3.23-3.51-5.15-5.53s-3.74-3.88-5.63-5.77l-0.07-0.07c-1.73-1.74-3.63-3.59-5.8-5.66-2.75-2.61-5.57-5.21-8.39-7.72l-3-2.59a322.76 322.76 0 0 0-183.83-78.07c-2.62-0.23-5.34-0.44-8.29-0.63l-3.9-0.23H523c-1.34-0.06-2.7-0.13-4-0.17h-0.21l-1.73-0.06h-0.14c-2-0.07-4.08-0.12-6.4-0.15h-8.42c-2.32 0-4.41 0.08-6.4 0.15h-0.14l-1.73 0.06h-0.21c-1.35 0-2.7 0.11-4 0.17h-0.27l-3.93 0.23c-2.91 0.19-5.63 0.39-8.28 0.63l-4.08 0.39a323.07 323.07 0 0 0-179.76 77.7l-3 2.6c-2.8 2.48-5.62 5.08-8.36 7.69-2.16 2.06-4.05 3.91-5.8 5.66a317.733 317.733 0 0 0-10.76 11.28l-0.09 0.1q-1.26 1.39-2.51 2.79l-0.13 0.14a322.81 322.81 0 0 0-80.22 182.62c-0.14 1.37-0.27 2.73-0.39 4.1-0.23 2.65-0.44 5.37-0.63 8.31-0.08 1.28-0.15 2.59-0.23 3.9v0.28c-0.06 1.35-0.13 2.7-0.17 4v0.18c0 0.59 0 1.17-0.06 1.76v0.14c-0.07 2-0.12 4.12-0.15 6.39v8.42c0 2.29 0.08 4.38 0.15 6.42v0.14c0 0.59 0 1.17 0.06 1.76v0.18c0 1.35 0.11 2.7 0.17 4v0.27c0.07 1.32 0.15 2.63 0.23 3.93a330.17 330.17 0 0 0 1.02 12.37A322.88 322.88 0 0 0 262.67 726l0.07 0.08c0.84 0.93 1.67 1.87 2.51 2.79l0.08 0.09c0.85 0.94 1.72 1.89 2.59 2.82 2.6 2.79 5.34 5.63 8.14 8.43 1.77 1.78 3.66 3.63 5.84 5.7 2.73 2.6 5.56 5.2 8.39 7.72l2.95 2.58A323.05 323.05 0 0 0 473 833.85c1.37 0.14 2.73 0.27 4.1 0.39 2.65 0.23 5.36 0.44 8.31 0.63l3.91 0.23zM138.9 528.77z m348.58-386.2z" fill="#26251E" p-id="10821"></path><path d="M698 482a21 21 0 0 1-10.25-2.66l-80.88-44.94a21.14 21.14 0 0 1-0.76-36.52L687 348.41a21.14 21.14 0 0 1 22 36.08L659.11 415l49.18 27.33A21.15 21.15 0 0 1 698 482zM318.51 599.49a21.14 21.14 0 0 1-15.23-35.8l27.94-29-37.22-9.6a21.14 21.14 0 1 1 10.51-41l72.39 18.58a21.14 21.14 0 0 1 10 35.14L333.75 593a21.08 21.08 0 0 1-15.24 6.49zM672.54 666.67a58 58 0 1 1 58-58 58 58 0 0 1-58 58z m0-73.67a15.69 15.69 0 1 0 15.69 15.69A15.71 15.71 0 0 0 672.54 593zM460.82 450a83.51 83.51 0 1 1 83.51-83.51A83.6 83.6 0 0 1 460.82 450z m0-124.73A41.22 41.22 0 1 0 502 366.45a41.27 41.27 0 0 0-41.18-41.22z" fill="#26251E" p-id="10822"></path></svg>