<?xml version="1.0" standalone="no"?><!DOCTYPE svg PUBLIC "-//W3C//DTD SVG 1.1//EN" "http://www.w3.org/Graphics/SVG/1.1/DTD/svg11.dtd"><svg t="1671879327314" class="icon" viewBox="0 0 1024 1024" version="1.1" xmlns="http://www.w3.org/2000/svg" p-id="9044" xmlns:xlink="http://www.w3.org/1999/xlink" width="200" height="200"><path d="M512 0c282.752 0 512 229.248 512 512s-229.248 512-512 512S0 794.752 0 512 229.248 0 512 0zM409.813333 660.778667a57.770667 57.770667 0 1 0 0 115.541333 57.770667 57.770667 0 0 0 0-115.541333z m265.728 0a57.770667 57.770667 0 1 0 0 115.541333 57.770667 57.770667 0 0 0 0-115.541333z m-265.728 23.125333a34.645333 34.645333 0 1 1 0 69.333333 34.645333 34.645333 0 0 1 0-69.333333z m265.728 0a34.645333 34.645333 0 1 1 0 69.333333 34.645333 34.645333 0 0 1 0-69.333333zM238.634667 267.776a11.52 11.52 0 0 0-6.4 22.101333l83.584 32.384 1.877333 0.938667a11.52 11.52 0 0 1 5.418667 8.448l12.586666 103.296 0.426667 2.048 0.256 0.768 19.712 166.613333 0.853333 4.522667c3.925333 16.213333 18.218667 28.757333 34.474667 28.757333h295.765333l4.394667-0.298666c15.829333-2.176 28.928-16.128 30.933333-32.981334l24.576-208 0.213334-4.522666c-0.298667-17.706667-14.933333-31.530667-33.834667-31.530667H365.184l-5.290667 0.426667a35.413333 35.413333 0 0 0-9.685333 2.730666l-4.181333-34.645333-0.554667-3.413333a34.688 34.688 0 0 0-21.333333-24.746667L240.64 268.373333z m474.837333 115.669333c6.997333 0 11.349333 4.522667 10.666667 10.24l-24.576 207.957334-0.64 2.986666c-1.877333 5.717333-6.954667 9.941333-11.733334 9.941334H391.424l-2.389333-0.341334a15.061333 15.061333 0 0 1-9.984-12.586666l-24.576-208v-2.346667c0.64-4.522667 4.693333-7.850667 10.666666-7.850667z" fill="#FF7712" p-id="9045"></path></svg>