<?xml version="1.0" standalone="no"?><!DOCTYPE svg PUBLIC "-//W3C//DTD SVG 1.1//EN" "http://www.w3.org/Graphics/SVG/1.1/DTD/svg11.dtd"><svg t="1673413195332" class="icon" viewBox="0 0 1024 1024" version="1.1" xmlns="http://www.w3.org/2000/svg" p-id="14998" xmlns:xlink="http://www.w3.org/1999/xlink" width="200" height="200"><path d="M392.704 128H629.76c103.936 0 187.904 40.96 189.44 145.408v583.168c0 6.656-1.536 12.8-4.608 18.944-5.12 9.216-13.312 15.872-24.064 19.456-9.728 3.072-20.992 1.536-30.208-4.096l-248.832-124.416L262.144 890.88c-5.632 3.072-12.288 5.12-18.944 5.12-21.504 0-38.912-17.408-38.912-38.912v-583.68C204.8 168.96 289.28 128 392.704 128z" fill="#CCDAFF" p-id="14999"></path><path d="M367.616 542.208h289.28c16.384 0 30.208-13.312 30.208-30.208 0-16.896-13.312-30.208-30.208-30.208H367.616c-16.384 0-29.696 13.312-29.696 30.208-0.512 16.896 12.8 30.208 29.696 30.208z" fill="#7A7AF9" p-id="15000"></path></svg>