<?xml version="1.0" standalone="no"?><!DOCTYPE svg PUBLIC "-//W3C//DTD SVG 1.1//EN" "http://www.w3.org/Graphics/SVG/1.1/DTD/svg11.dtd"><svg t="1672633039105" class="icon" viewBox="0 0 1024 1024" version="1.1" xmlns="http://www.w3.org/2000/svg" p-id="3537" xmlns:xlink="http://www.w3.org/1999/xlink" width="200" height="200"><path d="M512 512m-512 0a512 512 0 1 0 1024 0 512 512 0 1 0-1024 0Z" fill="#EE8A76" p-id="3538"></path><path d="M512 512m-494.88 0a494.88 494.88 0 1 0 989.76 0 494.88 494.88 0 1 0-989.76 0Z" fill="#F9ECDA" p-id="3539"></path><path d="M512 63.87c-1.17 0-2.34 0.01-3.5 0.02v444.35l290.62-340.31C721.36 102.97 621.25 63.87 512 63.87z" fill="#D87268" p-id="3540"></path><path d="M515.04 276.33s-3.01-188.67 15.14-188C548.33 89 583 73.67 592.33 131c9.33 57.33 59.34-37.33 84.67-9.33s41.77 39.33 15.88 72.67c-25.89 33.33 66.03-49.84 70.64-20 4.62 29.84-251.43 305.99-251.43 305.99l2.95-204z" fill="#EE8A76" p-id="3541"></path><path d="M196.76 191.54c-0.83 0.83-1.64 1.66-2.46 2.49l314.2 314.2L473.36 62.1C372.44 71.15 274 114.29 196.76 191.54z" fill="#D87268" p-id="3542"></path><path d="M349.14 339.63S213.6 208.35 226.91 195.99c13.31-12.37 26.98-47.72 74.12-13.78s15.56-68.36 53.27-66.47 57.35-1.73 62.62 40.15c5.26 41.88 11.44-81.93 35.81-64.09 24.37 17.84 38.58 394.15 38.58 394.15L349.14 339.63z" fill="#EE8A76" p-id="3543"></path><path d="M64.12 504.73c0 1.17 0.01 2.34 0.02 3.5H508.5L168.18 217.62C103.22 295.38 64.12 395.49 64.12 504.73z" fill="#D87268" p-id="3544"></path><path d="M276.59 501.7s-188.67 3.01-188-15.14c0.67-18.15-14.67-52.82 42.67-62.15 57.33-9.33-37.33-59.34-9.33-84.67s39.33-41.77 72.67-15.88-49.84-66.03-20-70.64 305.99 251.43 305.99 251.43l-204-2.95z" fill="#EE8A76" p-id="3545"></path><path d="M191.8 819.98c0.83 0.83 1.66 1.64 2.49 2.46l314.2-314.2-446.13 35.14c9.05 100.91 52.19 199.35 129.44 276.6z" fill="#D87268" p-id="3546"></path><path d="M339.89 667.6S208.61 803.14 196.25 789.83s-47.72-26.98-13.78-74.12-68.36-15.56-66.47-53.27c1.89-37.71-1.73-57.35 40.15-62.62 41.88-5.26-81.93-11.44-64.09-35.81 17.84-24.37 394.15-38.58 394.15-38.58L339.89 667.6z" fill="#EE8A76" p-id="3547"></path><path d="M504.99 952.61c1.17 0 2.34-0.01 3.5-0.02V508.24L217.87 848.55c77.76 64.96 177.87 104.06 287.12 104.06z" fill="#D87268" p-id="3548"></path><path d="M501.95 740.14s3.01 188.67-15.14 188c-18.15-0.67-52.82 14.67-62.15-42.67-9.33-57.33-59.34 37.33-84.67 9.33s-41.77-39.33-15.88-72.67c25.89-33.33-66.03 49.84-70.64 20S504.9 536.14 504.9 536.14l-2.95 204z" fill="#EE8A76" p-id="3549"></path><path d="M820.23 824.93c0.83-0.83 1.64-1.66 2.46-2.49l-314.2-314.2 35.14 446.14c100.92-9.05 199.36-52.2 276.6-129.45z" fill="#D87268" p-id="3550"></path><path d="M667.85 676.85s135.54 131.28 122.23 143.64c-13.31 12.37-26.98 47.72-74.12 13.78s-15.56 68.36-53.27 66.47-57.35 1.73-62.62-40.15c-5.26-41.88-11.44 81.93-35.81 64.09-24.37-17.84-38.58-394.15-38.58-394.15l142.17 146.32z" fill="#EE8A76" p-id="3551"></path><path d="M952.87 511.74c0-1.17-0.01-2.34-0.02-3.5H508.5l340.31 290.62c64.96-77.76 104.06-177.87 104.06-287.12z" fill="#D87268" p-id="3552"></path><path d="M740.4 514.78s188.67-3.01 188 15.14c-0.67 18.15 14.67 52.82-42.67 62.15-57.33 9.33 37.33 59.34 9.33 84.67s-39.33 41.77-72.67 15.88c-33.33-25.89 49.84 66.03 20 70.64-29.84 4.62-305.99-251.43-305.99-251.43l204 2.95z" fill="#EE8A76" p-id="3553"></path><path d="M825.19 196.5c-0.83-0.83-1.66-1.64-2.49-2.46l-314.2 314.2 446.14-35.14c-9.06-100.92-52.2-199.35-129.45-276.6z" fill="#D87268" p-id="3554"></path><path d="M677.1 348.88s131.28-135.54 143.64-122.23c12.37 13.31 47.72 26.98 13.78 74.12s68.36 15.56 66.47 53.27c-1.89 37.71 1.73 57.35-40.15 62.62-41.88 5.26 81.93 11.44 64.09 35.81s-394.15 38.58-394.15 38.58L677.1 348.88z" fill="#EE8A76" p-id="3555"></path></svg>